Coordinates
version=1
nRows=22
nColumns=24
inDegrees=yes

Units are S.I. units (second, meters, Newtons, ...)
Angles are in degrees.

endheader
time	pelvis_tilt	pelvis_list	pelvis_rotation	pelvis_tx	pelvis_ty	pelvis_tz	hip_flexion_r	hip_adduction_r	hip_rotation_r	knee_angle_r	ankle_angle_r	subtalar_angle_r	mtp_angle_r	hip_flexion_l	hip_adduction_l	hip_rotation_l	knee_angle_l	ankle_angle_l	subtalar_angle_l	mtp_angle_l	lumbar_extension	lumbar_bending	lumbar_rotation
      0.50300000	     -0.14727141	      0.82559976	      3.25738103	     -0.74799690	      0.98891443	      0.29006059	     24.88363296	      1.51491846	     -1.20203015	    -10.00721292	      4.17576474	    -12.59425945	     -0.24785159	    -14.93001640	      5.13574620	      1.95600933	     -6.01562115	     10.38478881	     -3.23621806	      0.38176957	     -1.08173854	      1.32198233	     -1.45338272
      0.50716667	     -0.16856764	      0.76190210	      3.27957032	     -0.74207618	      0.98828026	      0.29021744	     24.77092946	      1.64603419	     -1.29109595	     -9.90026224	      3.92968400	    -12.56489858	     -0.37057568	    -14.92190714	      5.02589569	      1.77927265	     -6.69572207	     10.57523168	     -2.87999149	      0.49090781	     -1.00899117	      1.39529268	     -1.46882497
      0.51133333	     -0.20743402	      0.71612164	      3.30250644	     -0.73614576	      0.98767214	      0.29035805	     24.68267534	      1.75722130	     -1.35520687	     -9.87752678	      3.64866786	    -12.56119897	     -0.45205512	    -14.87530727	      4.93999354	      1.67344673	     -7.40691205	     10.68543410	     -2.63824039	      0.61486349	     -0.91433518	      1.45085624	     -1.52724461
      0.51550000	     -0.22169146	      0.65462197	      3.32354753	     -0.73017598	      0.98713712	      0.29048248	     24.56837603	      1.88342546	     -1.42496635	     -9.91901593	      3.29546849	    -12.53161694	     -0.47457564	    -14.86003091	      4.84311848	      1.65810941	     -8.10792485	     10.73980019	     -2.54941876	      0.67771206	     -0.85377305	      1.53440157	     -1.53095413
      0.51966667	     -0.25447449	      0.59350983	      3.32558772	     -0.72417067	      0.98659613	      0.29068053	     24.47431786	      2.02257791	     -1.43225656	    -10.02310024	      2.95427149	    -12.57450401	     -0.48592831	    -14.74680440	      4.73177290	      1.43400157	     -8.96085521	     10.84395497	     -2.12625626	      0.84587759	     -0.74732115	      1.59515750	     -1.59065133
      0.52383333	     -0.29149649	      0.53272053	      3.30780896	     -0.71815767	      0.98607574	      0.29088908	     24.40551769	      2.16609392	     -1.42493012	    -10.21947897	      2.56170768	    -12.64707753	     -0.46469278	    -14.61362245	      4.63131411	      1.27099702	     -9.84143255	     10.89636628	     -1.85177296	      1.06950542	     -0.64953394	      1.67687966	     -1.60526454
      0.52800000	     -0.32322576	      0.46721060	      3.28778617	     -0.71210869	      0.98561345	      0.29110588	     24.32374090	      2.31494539	     -1.39483171	    -10.44841910	      2.12703052	    -12.72684712	     -0.41093510	    -14.46428132	      4.52351782	      1.12038088	    -10.75892604	     10.89472569	     -1.58850994	      1.32910758	     -0.55141559	      1.75679854	     -1.61031678
      0.53216667	     -0.33908726	      0.39214880	      3.25974566	     -0.70604070	      0.98520895	      0.29134125	     24.22494496	      2.47761427	     -1.34144481	    -10.71629098	      1.66650288	    -12.83364961	     -0.32322576	    -14.29741619	      4.40152250	      0.95459871	    -11.73821091	     10.85978144	     -1.30499514	      1.64841776	     -0.47092817	      1.85188380	     -1.59995287
      0.53633333	     -0.29881015	      0.28849720	      3.21642952	     -0.69992527	      0.98493126	      0.29162389	     24.03059900	      2.68781747	     -1.19905460	    -10.94197265	      1.09696055	    -13.14075466	      0.12894778	    -14.16953966	      4.24069153	      0.75158930	    -12.75093093	     10.76383581	     -1.00610151	      3.03990018	     -0.46021635	      1.98559773	     -1.56365563
      0.54050000	     -0.37097130	      0.23593794	      3.17596319	     -0.69384127	      0.98452029	      0.29184331	     24.04005300	      2.81186675	     -1.19265541	    -11.36880227	      0.63571872	    -13.09345328	      0.16193896	    -13.89528736	      4.15945105	      0.70161351	    -13.80570095	     10.53840927	     -0.95512667	      3.14553765	     -0.31165531	      2.05384782	     -1.53266452
      0.54466667	     -0.41474814	      0.16364508	      3.11389486	     -0.68776315	      0.98414924	      0.29217003	     24.00508711	      2.98095159	     -1.07049169	    -11.79398372	      0.25330139	    -13.25933744	      0.28010358	    -13.56231993	      4.02431042	      0.42852100	    -15.03085476	     10.43605568	     -0.50615165	      3.50526616	     -0.18945732	      2.14352896	     -1.49235127
      0.54883333	     -0.36737749	      0.03954865	      3.02454925	     -0.68162069	      0.98398407	      0.29256303	     23.80285077	      3.23533968	     -0.80163724	    -12.08430634	     -0.36207682	    -13.72312241	      0.77259504	    -13.32496538	      3.82835159	      0.14457878	    -16.23869719	     10.15253300	     -0.15575610	      5.10522162	     -0.18468748	      2.29784677	     -1.43453692
      0.55300000	     -0.46661748	     -0.01159359	      2.98547820	     -0.67555594	      0.98361770	      0.29281677	     23.86378337	      3.34775221	     -0.78623779	    -12.61279413	     -0.75353387	    -13.66042203	      0.82349376	    -12.87540604	      3.72751853	      0.06197641	    -17.54844945	      9.81924948	      0.00475778	      5.29334091	      0.00853182	      2.36318942	     -1.35550079
      0.55716667	     -0.50035528	     -0.11582427	      2.88608124	     -0.66947455	      0.98336527	      0.29323282	     23.82093653	      3.57106335	     -0.54864960	    -13.08691472	     -1.15380259	    -14.12655438	      1.78297948	    -12.45222110	      3.55002591	     -0.20105088	    -18.91416971	      9.37412931	      0.25355664	      9.28930778	      0.11135239	      2.49091495	     -1.26868516
      0.56133333	     -0.51078794	     -0.21481009	      2.80808334	     -0.66339861	      0.98315487	      0.29358790	     23.78492654	      3.75331715	     -0.48688264	    -13.62852020	     -1.52084275	    -14.09482377	      1.80319423	    -12.00585676	      3.36458708	     -0.44516799	    -20.37404292	      8.98797004	      0.64966918	      9.39326126	      0.18012556	      2.61532659	     -1.19317433
      0.56550000	     -0.50143820	     -0.34237882	      2.71624911	     -0.65733177	      0.98300690	      0.29400123	     23.71325521	      3.98489851	     -0.32961919	    -14.15315667	     -1.83789289	    -14.32535886	      1.82534253	    -11.53970716	      3.13644074	     -0.71849589	    -21.88860333	      8.50516433	      1.03933346	      9.61015866	      0.23000175	      2.77286860	     -1.09547686
      0.56966667	     -0.54224168	     -0.45972129	      2.62437810	     -0.65130843	      0.98280485	      0.29442056	     23.70927181	      4.20179030	     -0.16328394	    -14.71016108	     -2.10957932	    -14.54639629	      1.84121069	    -10.97141647	      2.91667726	     -0.96253611	    -23.47537604	      7.93815878	      1.38740876	      9.88736299	      0.33561483	      2.91422026	     -0.99463382
      0.57383333	     -0.46504491	     -0.64918010	      2.50616821	     -0.64524998	      0.98282184	      0.29495419	     23.51077242	      4.53760066	      0.17262467	    -15.13677855	     -2.39074762	    -15.12486191	      1.86411353	    -10.50454641	      2.58904125	     -1.30178192	    -25.08180913	      7.22865822	      1.78939884	     11.27210567	      0.30454028	      3.14313759	     -0.88555957
      0.57800000	     -0.50540229	     -0.76827436	      2.44488496	     -0.63928024	      0.98265348	      0.29531269	     23.53858414	      4.72290496	      0.20123596	    -15.77091051	     -2.48286257	    -15.03775681	      1.86510721	     -9.85202514	      2.34966752	     -1.47597135	    -26.77924281	      6.48297950	      2.09850881	     11.49539128	      0.41933671	      3.28398505	     -0.78404790
      0.58216667	     -0.50650724	     -0.91521910	      2.35234003	     -0.63334669	      0.98255361	      0.29577884	     23.50463818	      4.97495269	      0.36896964	    -16.36879696	     -2.60813070	    -15.34696163	      1.65302390	     -9.21191701	      2.06167628	     -1.71334361	    -28.49514499	      5.56789213	      2.35155299	     16.32611526	      0.46409340	      3.45114803	     -0.68874138
      0.58633333	     -0.47321712	     -1.10044016	      2.26080739	     -0.62742472	      0.98249926	      0.29622865	     23.43618223	      5.25569011	      0.47675536	    -16.97525122	     -2.55795346	    -15.38316859	      1.64703686	     -8.56527361	      1.71538363	     -1.97192894	    -30.28452887	      4.71753480	      2.73251003	     16.39603933	      0.46715018	      3.67850524	     -0.57925860
      0.59050000	     -0.42615946	     -1.29044938	      2.18474808	     -0.62153565	      0.98250150	      0.29666702	     23.32665123	      5.54235453	      0.61037785	    -17.53062563	     -2.49239238	    -15.49842112	      1.63336492	     -7.90619869	      1.35717360	     -2.18142807	    -32.09071172	      3.73821600	      3.04981702	     16.49716943	      0.46287179	      3.89894028	     -0.47936821
